<svg xmlns="http://www.w3.org/2000/svg" width="44.5" height="44.5" viewBox="0 0 44.5 44.5">
  <defs>
    <style>
      .cls-1 {
        fill: #baa377;
        fill-rule: evenodd;
      }
    </style>
  </defs>
  <path id="realestate3.svg" class="cls-1" d="M501.4,96.794l-2.84,5.679a0.954,0.954,0,0,1-1.707,0l-2.839-5.678a0.956,0.956,0,0,1-.1-0.427V65.133a0.955,0.955,0,0,1,.954-0.954h5.679a0.955,0.955,0,0,1,.954.954V96.367A0.967,0.967,0,0,1,501.4,96.794Zm-1.808-30.241a0.466,0.466,0,0,0-.466-0.466h-2.839a0.466,0.466,0,0,0-.466.466v2.84a0.466,0.466,0,0,0,.466.466h2.839a0.466,0.466,0,0,0,.466-0.466v-2.84Zm0,5.679a0.466,0.466,0,0,0-.466-0.466h-2.839a0.466,0.466,0,0,0-.466.466V90.688a0.466,0.466,0,0,0,.466.466h2.839a0.466,0.466,0,0,0,.466-0.466V72.232Zm0,21.3a0.466,0.466,0,0,0-.466-0.466h-2.839a0.466,0.466,0,0,0-.466.466v2.5a0.47,0.47,0,0,0,.049.208l1.42,2.84a0.466,0.466,0,0,0,.834,0l1.419-2.84a0.457,0.457,0,0,0,.049-0.208v-2.5ZM487.769,103H459.374A2.377,2.377,0,0,1,457,100.626V66.553a2.377,2.377,0,0,1,2.374-2.374h2.839a0.466,0.466,0,0,0,.466-0.466v-1.42a0.955,0.955,0,0,1,.954-0.954h5.038a0.467,0.467,0,0,0,.4-0.233,5.18,5.18,0,0,1,8.992,0,0.467,0.467,0,0,0,.4.233h5.038a0.955,0.955,0,0,1,.954.954v1.42a0.466,0.466,0,0,0,.466.466h2.84a2.376,2.376,0,0,1,2.373,2.374v34.073A2.377,2.377,0,0,1,487.769,103Zm-5.214-39.287a0.465,0.465,0,0,0-.465-0.466h-4.52a0.959,0.959,0,0,1-.9-0.635,3.281,3.281,0,0,0-6.2,0,0.956,0.956,0,0,1-.9.634h-4.52a0.466,0.466,0,0,0-.466.466v2.84a0.466,0.466,0,0,0,.466.466H482.09a0.465,0.465,0,0,0,.465-0.466v-2.84Zm5.679,2.84a0.465,0.465,0,0,0-.465-0.466h-2.84a0.466,0.466,0,0,0-.466.466v1.42a0.955,0.955,0,0,1-.954.954H463.633a0.955,0.955,0,0,1-.954-0.954v-1.42a0.466,0.466,0,0,0-.466-0.466h-2.839a0.466,0.466,0,0,0-.466.466v34.073a0.465,0.465,0,0,0,.466.466h28.395a0.465,0.465,0,0,0,.465-0.466V66.553Zm-4.725,27.929h-7.1a0.954,0.954,0,0,1,0-1.907h7.1A0.954,0.954,0,1,1,483.509,94.482Zm0-8.518h-7.1a0.954,0.954,0,0,1,0-1.908h7.1A0.954,0.954,0,1,1,483.509,85.963Zm0-8.519h-7.1a0.954,0.954,0,0,1,0-1.908h7.1A0.954,0.954,0,1,1,483.509,77.445ZM467.271,96.891a0.56,0.56,0,0,0-.083.078,0.756,0.756,0,0,0-.063.088l-0.061.035c-0.032.019-.065,0.037-0.1,0.058a1.092,1.092,0,0,0-.091.064l-0.03.021a0.945,0.945,0,0,1-.375.086h0a0.936,0.936,0,0,1-.326-0.066l-0.023-.014c-0.026-.015-0.052-0.03-0.079-0.043l-0.083-.039-0.035-.015a0.586,0.586,0,0,0-.071-0.072,0.643,0.643,0,0,0-.09-0.063L462.958,94.2a0.954,0.954,0,0,1,1.349-1.349l1.683,1.683a0.463,0.463,0,0,0,.329.136h0.033a0.466,0.466,0,0,0,.34-0.185l3.277-4.37A0.953,0.953,0,1,1,471.5,91.26Zm0-8.519a0.566,0.566,0,0,0-.083.078,0.756,0.756,0,0,0-.063.088l-0.061.035c-0.032.018-.065,0.037-0.1,0.057s-0.062.042-.091,0.064l-0.03.021a0.945,0.945,0,0,1-.375.086h0a0.934,0.934,0,0,1-.326-0.066l-0.023-.014c-0.026-.015-0.052-0.03-0.079-0.043l-0.083-.039-0.035-.015a0.593,0.593,0,0,0-.071-0.072,0.641,0.641,0,0,0-.09-0.063l-2.807-2.807a0.954,0.954,0,1,1,1.349-1.349l1.683,1.682a0.463,0.463,0,0,0,.329.136h0.033a0.466,0.466,0,0,0,.34-0.185l3.277-4.37a0.941,0.941,0,0,1,.762-0.381,0.952,0.952,0,0,1,.764,1.524Zm0-8.518a0.566,0.566,0,0,0-.083.078,0.765,0.765,0,0,0-.063.088l-0.061.035c-0.032.018-.065,0.037-0.1,0.057s-0.062.042-.091,0.064l-0.03.021a0.943,0.943,0,0,1-.375.086h0a0.934,0.934,0,0,1-.326-0.066l-0.023-.014c-0.026-.015-0.052-0.03-0.079-0.043l-0.083-.039-0.035-.015a0.586,0.586,0,0,0-.071-0.072,0.641,0.641,0,0,0-.09-0.063l-2.807-2.807a0.954,0.954,0,1,1,1.349-1.349L465.99,77.5a0.463,0.463,0,0,0,.329.136h0.033a0.466,0.466,0,0,0,.34-0.185l3.277-4.37a0.953,0.953,0,1,1,1.526,1.143Zm6.3-15.6a1.011,1.011,0,1,1,1.011-1.011A1.011,1.011,0,0,1,473.571,64.258Z" transform="translate(-457 -58.5)"/>
</svg>

