<svg xmlns="http://www.w3.org/2000/svg" width="44" height="44" viewBox="0 0 44 44">
  <defs>
    <style>
      .cls-1 {
        fill: #baa377;
        fill-rule: evenodd;
      }
    </style>
  </defs>
  <path id="realestate1.svg" class="cls-1" d="M613.717,98l-8.336-8.336,4.368-4.368,3.968,3.958,8.9-8.916L627,84.707Zm-5.537-8.336,5.537,5.537L624.2,84.707l-1.58-1.569-8.9,8.916L609.749,88.1ZM603.8,95.612a20.8,20.8,0,1,1,20.81-20.81,20.586,20.586,0,0,1-.51,4.568l-1.929-.43a19.131,19.131,0,0,0,.45-4.138A18.821,18.821,0,1,0,603.8,93.622a18.507,18.507,0,0,0,2.978-.23l0.31,1.959a21.239,21.239,0,0,1-3.288.26h0Zm0-3.968a16.8,16.8,0,1,1,15.982-11.494l-1.879-.63a15.036,15.036,0,0,0,.76-4.718A14.858,14.858,0,1,0,603.8,89.665c0.33,0,.649-0.01.969-0.03l0.13,1.979c-0.36.02-.729,0.03-1.1,0.03h0Zm0.07-14.5L597.225,71.6l1.27-1.519,5.247,4.368,8.276-8.276,1.4,1.409ZM604.8,63.907h-1.989V60.939H604.8v2.968Zm0,24.768h-1.989V85.707H604.8v2.968ZM592.907,75.791h-2.968V73.812h2.968v1.979Zm24.768,0h-2.968V73.812h2.968v1.979Z" transform="translate(-583 -54)"/>
</svg>

