<svg xmlns="http://www.w3.org/2000/svg" width="40" height="40" viewBox="0 0 40 40">
  <defs>
    <style>
      .cls-1 {
        fill: #baa377;
        fill-rule: evenodd;
      }
    </style>
  </defs>
  <path id="realestate2.svg" class="cls-1" d="M567.5,85.5H550.239l-6.464,4.04a0.833,0.833,0,0,1-1.275-.706v-22.5a2.5,2.5,0,0,1,2.5-2.5h22.5a2.5,2.5,0,0,1,2.5,2.5V83A2.5,2.5,0,0,1,567.5,85.5Zm0.833-19.167A0.833,0.833,0,0,0,567.5,65.5H545a0.834,0.834,0,0,0-.834.833v21l5.392-3.369A0.835,0.835,0,0,1,550,83.833h17.5A0.833,0.833,0,0,0,568.333,83V66.333Zm-5,12.5H550a0.833,0.833,0,1,1,0-1.667h13.333A0.833,0.833,0,0,1,563.333,78.833Zm-2.5-6.667H550a0.833,0.833,0,1,1,0-1.667h10.833A0.833,0.833,0,0,1,560.833,72.167ZM560.44,62.7a15.289,15.289,0,0,0-9.19-3.038c-7.689,0-13.274,4.124-14.8,10.833H537.5a0.833,0.833,0,0,1,.833.833V84.667a0.833,0.833,0,0,1-.833.833H535a5.006,5.006,0,0,1-5-5v-5a5.006,5.006,0,0,1,4.741-4.993C536.317,62.772,542.58,58,551.25,58a16.948,16.948,0,0,1,10.185,3.367A0.834,0.834,0,0,1,560.44,62.7ZM531.666,75.5v5A3.337,3.337,0,0,0,535,83.833h1.666V72.167H535A3.337,3.337,0,0,0,531.666,75.5Zm15,14.167h6.667a4.169,4.169,0,0,1,3.681,2.218,15.373,15.373,0,0,0,6.687-5.208,0.833,0.833,0,1,1,1.344.985,17.03,17.03,0,0,1-7.56,5.832c0.009,0.112.015,0.226,0.015,0.34A4.171,4.171,0,0,1,553.333,98h-6.667A4.167,4.167,0,0,1,546.666,89.667Zm0,6.667h6.667a2.5,2.5,0,0,0,2.424-3.113c-0.01-.029-0.018-0.058-0.025-0.088a2.5,2.5,0,0,0-2.4-1.8h-6.667A2.5,2.5,0,1,0,546.666,96.333Z" transform="translate(-530 -58)"/>
</svg>

