<svg xmlns="http://www.w3.org/2000/svg" width="64" height="64" viewBox="0 0 64 64">
  <defs>
    <style>
      .cls-1 {
        fill: #222;
        fill-rule: evenodd;
      }
    </style>
  </defs>
  <path id="realestate4.svg" class="cls-1" d="M1154.42,472a1.369,1.369,0,0,1-1.37-1.372V464.5a0.671,0.671,0,0,0-.67-0.671h-6.13a1.375,1.375,0,0,1-.97-0.4l-2.04-2.042a1.358,1.358,0,0,1-.4-0.97v-4.084a0.67,0.67,0,0,0-.67-0.67h-4.09a1.376,1.376,0,0,1-.97-0.4l-4.93-4.937a0.678,0.678,0,0,0-.48-0.2,0.607,0.607,0,0,0-.23.043,21.785,21.785,0,1,1,14.11-20.382,21.886,21.886,0,0,1-1.98,9.084,0.663,0.663,0,0,0,.14.753l21.86,21.863a1.358,1.358,0,0,1,.4.97v8.167a1.376,1.376,0,0,1-1.37,1.372h-10.21Zm-22.24-24.978a1.363,1.363,0,0,1,.97.4l5.31,5.305a0.646,0.646,0,0,0,.47.2h5.28a1.37,1.37,0,0,1,1.37,1.372v5.28a0.656,0.656,0,0,0,.2.474l0.84,0.846a0.691,0.691,0,0,0,.48.2h7.32a1.376,1.376,0,0,1,1.37,1.372v6.125a0.67,0.67,0,0,0,.67.671h6.13a0.67,0.67,0,0,0,.67-0.671v-5.28a0.658,0.658,0,0,0-.2-0.474l-22.31-22.305a1.389,1.389,0,0,1-.23-1.627,19.131,19.131,0,1,0-8.9,8.241A1.324,1.324,0,0,1,1132.18,447.022ZM1119.71,433.2a7.5,7.5,0,1,1,7.49-7.5A7.5,7.5,0,0,1,1119.71,433.2Zm0-12.251a4.754,4.754,0,1,0,4.75,4.754A4.765,4.765,0,0,0,1119.71,420.953Z" transform="translate(-1102 -408)"/>
</svg>

