<svg xmlns="http://www.w3.org/2000/svg" width="48.531" height="45.406" viewBox="0 0 48.531 45.406">
  <defs>
    <style>
      .cls-1 {
        fill: #baa377;
        fill-rule: evenodd;
      }
    </style>
  </defs>
  <path id="realestate.svg" class="cls-1" d="M666.3,98c-3.307,0-13.1-2.877-17.151-4.115a0.509,0.509,0,0,0-.657.486V96.96a1.041,1.041,0,0,1-1.04,1.04H641.04A1.041,1.041,0,0,1,640,96.96V75.29a1.041,1.041,0,0,1,1.04-1.04h6.408a1.041,1.041,0,0,1,1.04,1.04v5.769a0.508,0.508,0,0,0,.693.473,17.3,17.3,0,0,1,5.909-1.238,8.973,8.973,0,0,1,1.359.1,0.525,0.525,0,0,0,.078.006,0.509,0.509,0,0,0,.508-0.508V73.742a0.508,0.508,0,0,0-.508-0.508h-3.1a1.041,1.041,0,0,1-.767-1.743L669.7,52.917a1.024,1.024,0,0,1,.753-0.338h0.033a1.044,1.044,0,0,1,.781.374l5,6a0.508,0.508,0,0,0,.9-0.325V55.168a1.042,1.042,0,0,1,1.04-1.04h4.646a1.042,1.042,0,0,1,1.041,1.04V66.527a0.507,0.507,0,0,0,.133.343l4.239,4.621a1.04,1.04,0,0,1-.767,1.743h-3.1a0.508,0.508,0,0,0-.508.508V85.31a0.508,0.508,0,0,0,.363.487,3.384,3.384,0,0,1,2.182,1.974c0.815,1.826.717,3.062-.291,3.673C682.518,93.644,669.841,98,666.3,98ZM655.141,82.354a15.874,15.874,0,0,0-6.367,1.616,0.508,0.508,0,0,0-.286.456v6.706a0.509,0.509,0,0,0,.359.486c2.328,0.718,14.111,4.3,17.449,4.3,2.914,0,14.482-3.916,18.283-5.973a0.507,0.507,0,0,0,.244-0.593,6.49,6.49,0,0,0-.283-0.736,1.475,1.475,0,0,0-1.575-.933,6.022,6.022,0,0,0-1.386.2c-0.911.22-2.015,0.521-3.185,0.839-1.93.525-4.326,1.176-6.081,1.5a0.526,0.526,0,0,0-.06.015l-0.547.172a21.276,21.276,0,0,1-5.59,1.251,4.069,4.069,0,0,1-.883-0.087c-1.4-.315-7.573-1.764-9.374-2.188l0.477-2.025c1.8,0.423,7.949,1.868,9.356,2.184a2,2,0,0,0,.449.044,19.367,19.367,0,0,0,4.744-1.1,0.506,0.506,0,0,0,.309-0.7,2.853,2.853,0,0,0-.633-0.87,5.637,5.637,0,0,0-4.067-1.3,12.335,12.335,0,0,0-1.4.084,15.05,15.05,0,0,1-1.693.1,6.426,6.426,0,0,1-5.4-2.324,3.184,3.184,0,0,0-.914-0.8A4.939,4.939,0,0,0,655.141,82.354ZM642.589,76.33a0.508,0.508,0,0,0-.508.508V95.412a0.508,0.508,0,0,0,.508.508h3.31a0.509,0.509,0,0,0,.509-0.508V76.838a0.509,0.509,0,0,0-.509-0.508h-3.31Zm23.934,7.213c4.065,0,6.152,2,6.75,3.868a0.509,0.509,0,0,0,.6.339c1.31-.317,2.734-0.7,3.966-1.035,1.207-.328,2.329-0.633,3.245-0.853a1.441,1.441,0,0,1,.143-0.025c0.058-.008.117-0.017,0.178-0.03a0.508,0.508,0,0,0,.4-0.5V72.194a1.041,1.041,0,0,1,1.04-1.04h1.125a0.508,0.508,0,0,0,.375-0.851l-2.267-2.471a1.039,1.039,0,0,1-.273-0.7V56.716a0.508,0.508,0,0,0-.508-0.508h-1.549a0.508,0.508,0,0,0-.508.508v6.191a1.042,1.042,0,0,1-1.841.666L670.8,55.645a0.508,0.508,0,0,0-.379-0.183h-0.012a0.506,0.506,0,0,0-.374.165L656.575,70.3a0.508,0.508,0,0,0,.375.851h1.125a1.042,1.042,0,0,1,1.041,1.04v9.233a0.507,0.507,0,0,0,.141.352c0.1,0.1.193,0.2,0.284,0.3a4.378,4.378,0,0,0,3.829,1.656,13.053,13.053,0,0,0,1.489-.095A14.605,14.605,0,0,1,666.523,83.543Z" transform="translate(-640 -52.594)"/>
</svg>

